<?xml version="1.0" encoding="utf-8"?>
<!-- Generator: Adobe Illustrator 18.1.0, SVG Export Plug-In . SVG Version: 6.00 Build 0)  -->
<svg version="1.1" id="Layer_1" xmlns="http://www.w3.org/2000/svg" xmlns:xlink="http://www.w3.org/1999/xlink" x="0px" y="0px"
	 viewBox="0 0 987.5 131.5" enable-background="new 0 0 987.5 131.5" xml:space="preserve">
<line fill="none" stroke="#000000" stroke-miterlimit="10" x1="69.9" y1="100.9" x2="333.2" y2="54.1"/>
<line fill="none" stroke="#000000" stroke-miterlimit="10" x1="28.1" y1="23.2" x2="333.2" y2="131.1"/>
<line fill="none" stroke="#000000" stroke-miterlimit="10" x1="28.1" y1="23.2" x2="69.9" y2="100.9"/>
<line fill="none" stroke="#000000" stroke-miterlimit="10" x1="333.2" y1="131.1" x2="449.7" y2="0.9"/>
<line fill="none" stroke="#000000" stroke-miterlimit="10" x1="449.7" y1="0.9" x2="441.1" y2="113.1"/>
<line fill="none" stroke="#000000" stroke-miterlimit="10" x1="441.1" y1="113.1" x2="333.2" y2="54.1"/>
<line fill="none" stroke="#000000" stroke-miterlimit="10" x1="0.1" y1="66" x2="194.9" y2="37.6"/>
<line fill="none" stroke="#000000" stroke-miterlimit="10" x1="194.9" y1="37.6" x2="254" y2="131.1"/>
<line fill="none" stroke="#000000" stroke-miterlimit="10" x1="254" y1="131.1" x2="303.7" y2="34.7"/>
<line fill="none" stroke="#000000" stroke-miterlimit="10" x1="303.7" y1="34.7" x2="387.1" y2="118.8"/>
<g>
	<line fill="none" stroke="#000000" stroke-miterlimit="10" x1="387.1" y1="118.8" x2="493.6" y2="51.8"/>
</g>
<line fill="none" stroke="#000000" stroke-miterlimit="10" x1="917.6" y1="100.3" x2="654.3" y2="53.6"/>
<line fill="none" stroke="#000000" stroke-miterlimit="10" x1="959.3" y1="22.6" x2="654.3" y2="130.5"/>
<line fill="none" stroke="#000000" stroke-miterlimit="10" x1="959.3" y1="22.6" x2="917.6" y2="100.3"/>
<line fill="none" stroke="#000000" stroke-miterlimit="10" x1="654.3" y1="130.5" x2="537.7" y2="0.3"/>
<line fill="none" stroke="#000000" stroke-miterlimit="10" x1="537.7" y1="0.3" x2="546.4" y2="112.6"/>
<line fill="none" stroke="#000000" stroke-miterlimit="10" x1="546.4" y1="112.6" x2="654.3" y2="53.6"/>
<line fill="none" stroke="#000000" stroke-miterlimit="10" x1="987.4" y1="65.4" x2="792.5" y2="37"/>
<line fill="none" stroke="#000000" stroke-miterlimit="10" x1="792.5" y1="37" x2="733.4" y2="130.5"/>
<line fill="none" stroke="#000000" stroke-miterlimit="10" x1="733.4" y1="130.5" x2="683.8" y2="34.1"/>
<line fill="none" stroke="#000000" stroke-miterlimit="10" x1="683.8" y1="34.1" x2="600.3" y2="118.3"/>
<line fill="none" stroke="#000000" stroke-miterlimit="10" x1="600.3" y1="118.3" x2="493.9" y2="51.2"/>
</svg>
