<?xml version="1.0" encoding="utf-8"?>
<!-- Generator: Adobe Illustrator 18.1.0, SVG Export Plug-In . SVG Version: 6.00 Build 0)  -->
<svg version="1.1" id="Layer_1" xmlns="http://www.w3.org/2000/svg" xmlns:xlink="http://www.w3.org/1999/xlink" x="0px" y="0px"
	 viewBox="0 100 600 400" enable-background="new 0 100 600 400" xml:space="preserve">
<g>
	<polygon fill="#111111" points="326.8,498.6 326.8,500 600,300 599,299.3 	"/>
	<polygon fill="#111111" points="582.7,287.3 326.8,474.7 326.8,477.5 584.6,288.8 	"/>
	<polygon fill="#111111" points="566.3,275.3 326.8,450.7 326.8,453.6 568.3,276.8 	"/>
	<polygon fill="#111111" points="549.9,263.3 326.8,426.7 326.8,429.6 551.9,264.8 	"/>
	<polygon fill="#111111" points="533.5,251.3 326.8,402.7 326.8,405.6 535.5,252.8 	"/>
	<polygon fill="#111111" points="326.9,210.8 326.9,213.7 404.5,156.8 402.5,155.4 	"/>
	<polygon fill="#111111" points="326.9,186.8 326.9,189.7 388.1,144.8 386.1,143.4 	"/>
	<polygon fill="#111111" points="326.9,162.8 326.9,165.7 371.7,132.8 369.8,131.4 	"/>
	<polygon fill="#111111" points="326.9,138.9 326.9,141.7 355.4,120.9 353.4,119.4 	"/>
	<polygon fill="#111111" points="326.9,114.9 326.9,117.7 339,108.9 337,107.4 	"/>
	<polygon fill="#111111" points="590.9,293.3 326.8,486.7 326.8,489.5 592.8,294.8 	"/>
	<polygon fill="#111111" points="574.5,281.3 326.8,462.7 326.8,465.6 576.5,282.8 	"/>
	<polygon fill="#111111" points="558.1,269.3 326.8,438.7 326.8,441.6 560.1,270.8 	"/>
	<polygon fill="#111111" points="541.7,257.3 326.8,414.7 326.8,417.6 543.7,258.8 	"/>
	<polygon fill="#111111" points="525.3,245.3 326.8,390.7 326.8,393.6 527.3,246.8 	"/>
	<polygon fill="#111111" points="326.9,198.8 326.9,201.7 396.3,150.8 394.3,149.4 	"/>
	<polygon fill="#111111" points="326.9,174.8 326.9,177.7 379.9,138.8 378,137.4 	"/>
	<polygon fill="#111111" points="326.9,150.8 326.9,153.7 363.5,126.8 361.6,125.4 	"/>
	<polygon fill="#111111" points="326.9,126.9 326.9,129.7 347.2,114.9 345.2,113.4 	"/>
	<polygon fill="#111111" points="326.9,102.9 326.9,105.7 330.8,102.9 328.8,101.4 	"/>
	<polygon fill="#111111" points="434.6,298.6 163.4,497.1 163.4,500 326.8,380.4 326.8,381.6 519.1,240.8 517.2,239.4 435.5,299.2 	
		"/>
	<polygon fill="#111111" points="418.2,286.6 163.4,473.1 163.4,478.9 422.2,289.5 421,288.6 502.8,228.8 500.8,227.4 419.1,287.2 	
		"/>
	<polygon fill="#111111" points="401.9,274.6 163.4,449.2 163.4,454.9 405.8,277.5 404.7,276.6 486.4,216.8 484.4,215.4 
		402.7,275.2 	"/>
	<polygon fill="#111111" points="385.5,262.6 163.4,425.2 163.4,430.9 389.4,265.5 388.3,264.6 470,204.8 468,203.4 386.3,263.2 	
		"/>
	<polygon fill="#111111" points="369.1,250.6 163.4,401.2 163.4,407 373,253.5 371.9,252.6 453.6,192.8 451.7,191.4 369.9,251.2 	
		"/>
	<polygon fill="#111111" points="273.1,300 163.4,380.4 163.4,383 356.7,241.5 355.5,240.6 437.2,180.8 435.3,179.4 353.6,239.2 
		352.7,238.6 271,298.4 	"/>
	<polygon fill="#111111" points="258.6,289.3 340.3,229.5 339.2,228.7 420.9,168.8 418.9,167.4 337.2,227.2 336.3,226.6 
		254.6,286.4 	"/>
	<polygon fill="#111111" points="242.2,277.3 323.9,217.5 320,214.6 238.3,274.5 	"/>
	<polygon fill="#111111" points="225.8,265.3 307.5,205.5 303.6,202.6 221.9,262.5 	"/>
	<polygon fill="#111111" points="209.4,253.3 291.2,193.5 287.2,190.6 205.5,250.5 	"/>
	<polygon fill="#111111" points="193.1,241.3 274.8,181.5 270.8,178.6 189.1,238.5 	"/>
	<polygon fill="#111111" points="176.7,229.4 258.4,169.5 254.5,166.6 172.7,226.5 	"/>
	<polygon fill="#111111" points="163.4,215.1 242,157.5 238.1,154.6 163.4,209.3 	"/>
	<polygon fill="#111111" points="163.4,191.1 225.6,145.5 221.7,142.6 163.4,185.3 	"/>
	<polygon fill="#111111" points="163.4,167.1 209.3,133.5 205.3,130.6 163.4,161.3 	"/>
	<polygon fill="#111111" points="163.4,143.1 192.9,121.5 189,118.6 163.4,137.3 	"/>
	<polygon fill="#111111" points="163.4,119.1 176.5,109.5 172.6,106.7 163.4,113.3 	"/>
	<polygon fill="#111111" points="426.4,292.6 163.4,485.1 163.4,490.9 430.4,295.5 429.2,294.6 510.9,234.8 509,233.4 427.3,293.2 	
		"/>
	<polygon fill="#111111" points="410,280.6 163.4,461.2 163.4,466.9 414,283.5 412.8,282.6 494.6,222.8 492.6,221.4 410.9,281.2 	
		"/>
	<polygon fill="#111111" points="393.7,268.6 163.4,437.2 163.4,442.9 397.6,271.5 396.5,270.6 478.2,210.8 476.2,209.4 
		394.5,269.2 	"/>
	<polygon fill="#111111" points="377.3,256.6 163.4,413.2 163.4,418.9 381.2,259.5 380.1,258.6 461.8,198.8 459.8,197.4 
		378.1,257.2 	"/>
	<polygon fill="#111111" points="360.9,244.6 163.4,389.2 163.4,395 364.8,247.5 363.7,246.6 445.4,186.8 443.5,185.4 361.8,245.2 	
		"/>
	<polygon fill="#111111" points="266.8,295.3 348.5,235.5 347.3,234.7 429,174.8 427.1,173.4 345.4,233.2 344.5,232.6 262.8,292.4 	
		"/>
	<polygon fill="#111111" points="250.4,283.3 332.1,223.5 331,222.7 412.7,162.8 410.7,161.4 329,221.2 328.2,220.6 246.4,280.5 	
		"/>
	<polygon fill="#111111" points="234,271.3 315.7,211.5 311.8,208.6 230.1,268.4 	"/>
	<polygon fill="#111111" points="217.6,259.3 299.3,199.5 295.4,196.6 213.7,256.5 	"/>
	<polygon fill="#111111" points="201.2,247.3 283,187.5 279,184.6 197.3,244.5 	"/>
	<polygon fill="#111111" points="184.9,235.3 266.6,175.5 262.7,172.6 180.9,232.5 	"/>
	<polygon fill="#111111" points="168.5,223.4 250.2,163.5 246.3,160.6 164.6,220.5 	"/>
	<polygon fill="#111111" points="163.4,203.1 233.8,151.5 229.9,148.6 163.4,197.3 	"/>
	<polygon fill="#111111" points="163.4,179.1 217.5,139.5 213.5,136.6 163.4,173.3 	"/>
	<polygon fill="#111111" points="163.4,155.1 201.1,127.5 197.1,124.6 163.4,149.3 	"/>
	<polygon fill="#111111" points="163.4,131.1 184.7,115.5 180.8,112.7 163.4,125.3 	"/>
	<polygon fill="#111111" points="163.4,101.4 163.4,107.1 168.3,103.5 164.4,100.7 	"/>
	<polygon fill="#111111" points="0,100 0,300 0,500 136.6,400 163.4,380.4 273.1,300 271,298.4 266.8,295.3 262.8,292.4 
		258.6,289.3 254.6,286.4 250.4,283.3 246.4,280.5 242.2,277.3 238.3,274.5 234,271.3 230.1,268.4 225.8,265.3 221.9,262.5 
		217.6,259.3 213.7,256.5 209.4,253.3 205.5,250.5 201.2,247.3 197.3,244.5 193.1,241.3 189.1,238.5 184.9,235.3 180.9,232.5 
		176.7,229.4 172.7,226.5 168.5,223.4 164.6,220.5 163.4,219.7 136.6,200 	"/>
</g>
</svg>
