<?xml version="1.0" encoding="utf-8"?>
<!-- Generator: Adobe Illustrator 21.0.2, SVG Export Plug-In . SVG Version: 6.00 Build 0)  -->
<svg version="1.1" id="Layer_1" xmlns="http://www.w3.org/2000/svg" xmlns:xlink="http://www.w3.org/1999/xlink" x="0px" y="0px"
	 viewBox="0 0 514.7 290.2" enable-background="new 0 0 514.7 290.2" xml:space="preserve">
<g>
	<path fill="#010101" d="M201.1,287.2c-4.6-8.7-3.5-17,0.3-25.2c1.7-3.8,3.6-7.5,5.1-11.4c1.8-4.6,0.5-7.8-4.3-8.8
		c-9-1.8-18-3.6-27.1-4.3c-7.1-0.5-12.6,3.7-16.5,9.6c-3.1,4.7-5.7,9.8-9.2,14.2c-2.7,3.4-6.4,6.2-9.9,8.8c-3.2,2.3-6.8,1.2-9-1.5
		c-1.1-1.4-0.6-4.6,0.1-6.6c2.7-7.9,5.8-15.6,8.7-23.4c0.7-1.8,1.7-4.2,1.1-5.7c-1.2-3-3.2-7.7-5.4-8c-3.3-0.5-8.3,1.1-10.5,3.6
		c-4.7,5.3-8.6,11.5-11.7,17.9c-4.3,9-10.7,12.8-21.8,10c0.8-4.2,1-8.9,2.6-13.2c2.3-6.2,5.7-12,8.4-18.1c2.6-5.6,2.1-11.1-2.1-15.8
		c-4.8-5.3-10.2-5.5-14.9,0c-9.2,10.8-18.1,21.8-27.2,32.6c-2.9,3.4-6.2,6.5-9.6,9.4c-4,3.4-9,3.4-13.7,2c-5.6-1.6-6.9-6.5-3.1-10.8
		c1.4-1.6,3.2-2.9,5-4c15.1-9.7,23.9-24,28.4-40.8c1-3.8-2.4-8.7-4.3-15c-5,3.6-9.3,5.6-12.1,8.9c-9,10.3-17.4,21.1-26.2,31.5
		c-2.3,2.7-5.3,5.1-8.4,7c-4.6,2.8-9.2,1.5-12.2-2.8c-2.8-3.9-1.8-6.2,1.9-11c6.2-7.8,11.8-16,17.3-24.2c3.7-5.5,6.9-11.4,10.3-17.1
		c3-5.2,2.4-8.1-3-10.9c-5.4-2.9-11.1-5.4-16.6-8c-1.9-0.9-3.9-1.9-5.8-3c-5.5-3.3-6.5-7.7-2.9-13c4.5-6.7,11.3-9.7,19-10.7
		c9.7-1.2,18.4,1,25.8,7.9c49.2,45.5,107.2,72.4,173.4,81.5c27.5,3.8,55.2,2.7,82.8,1c20.6-1.3,41.2-2.3,61.4-7.1
		c35.2-8.4,67.1-24.3,97.7-43.3c9.2-5.7,18.1-11.8,27.2-17.7c1.3-0.8,2.5-1.7,3.8-2.4c10-5.4,21.1,1.1,20.8,12.6
		c-0.1,2.7-2.3,5.6-4.2,7.9c-1.3,1.6-3.6,2.2-5.5,3.4c-5.4,3.2-7.2,6.3-5.9,12.4c2.8,13.1-7.4,17.4-16.3,16.1
		c-4.1-0.6-8.2-1.4-12.4-1.6c-9.9-0.5-16.1,3.8-19.5,13c-1.2,3.1-2,6.4-3,9.5c-1,3.2-3.1,4.2-6.2,2.6c-2.7-1.3-5.3-2.9-7.9-4.2
		c-12.2-6.1-23.1,0.3-23.9,13.9c-0.5,8.3-0.8,16.6-1.9,24.9c-0.5,3.8-2.6,7.4-4,11.2c-0.8,0.1-1.6,0.1-2.4,0.2
		c-2-3.2-4.5-6.3-5.8-9.7c-1.8-5-2.6-10.3-4-15.4c-2-7.2-5.6-9.9-13-9.8c-2.5,0-5,0.1-7.5,0.4c-6.8,0.6-10.9,4.4-12.4,11
		c-0.8,3.6-1.6,7.1-2.3,10.7c-1.3,7-4,13.1-10.9,17.1c-3.7-4.4-7.6-8.9-6.8-15.5c0.6-5-1.1-9.1-5.8-13.6c-2.6,3.4-5.8,6.3-7.4,10
		c-3.4,7.7-6,15.9-8.9,23.8c-0.6,1.5-1.3,3.1-2.2,4.5c-2.8,4.2-8.3,6.5-12,5.1c-4.9-1.9-5.1-6.1-4.8-10.4c0.4-6.5,1.2-12.9,1.4-19.4
		c0.2-7.1-1.5-8.9-8.4-9.7c-1.5-0.2-3-0.5-4.4-0.7c-5.6-0.6-8.1,0.9-9.7,6.3c-2.6,8.9-5.1,17.9-7.5,26.9c-0.9,3.3-1.9,6.3-6.1,5.7
		c-1.5-0.2-3.4-1-4.1-2.2c-2.6-4.2-5.1-8.5-3.1-13.9c1.5-4.2,2.4-8.7,3.4-13c1.3-5.3-0.4-8.1-5.7-9c-5.9-1-11.9-1.8-17.8-2.4
		c-6.1-0.6-10.2,2.5-12.7,7.8c-2.5,5.4-4.9,10.9-7,16.5C213.4,279.3,208.4,284.2,201.1,287.2z"/>
	<path fill="#010101" d="M274.6,0.1c19.8,0,39.6-0.2,59.5,0.1c7.5,0.1,15.1,1,22.6,2c6.1,0.8,10.9,7.6,10.3,13.7
		c-0.6,5.9-6.3,11.3-12.5,11.1c-7.4-0.3-14.7-1.8-22.1-1.8c-39.8-0.2-79.6-0.1-119.4-0.1c-8.2,0-14.1-5.3-14-12.6
		c0.1-7.2,6-12.4,14.2-12.4C233.6,0.1,254.1,0.1,274.6,0.1z"/>
	<path fill="#010101" d="M271.9,46.1c18.8,0,37.6-0.2,56.5,0.1c8.4,0.1,16.7,1,25.1,2c6.1,0.7,11,7.4,10.4,13.6
		c-0.5,6-6.1,11.5-12.3,11.2c-7.4-0.3-14.7-1.8-22.1-1.8c-39.8-0.2-79.6-0.1-119.4-0.1c-8.3,0-14.2-5.2-14.2-12.4
		c0-7.3,5.8-12.6,14.1-12.6C230.6,46.1,251.3,46.1,271.9,46.1z"/>
	<path fill="#010101" d="M348.5,121.1c-46.6-3.7-93.3-1.2-140-2c-6.9-0.1-12.6-5.8-12.5-12.6c0-6.7,5.7-12.4,12.7-12.4
		c41.8,0,83.6-0.1,125.4,0.1c6.7,0,13.4,1,20,2.1c6.2,1.1,10.7,8.1,9.8,14.1c-0.9,5.9-6.5,10.6-12.9,10.7
		C350.1,121.1,349.3,121.1,348.5,121.1z"/>
	<path fill="#010101" d="M48,113.5c4-3.5,7.8-3.6,12.6-1.9c19.4,7,36.8,17.7,53.6,29.4c16.2,11.3,32.8,22.2,51.6,29.1
		c4,1.5,6.2,5.3,4.7,8.6c-1,2.4-5.4,4.6-8.2,4.5c-4.3-0.2-8.8-1.8-12.6-3.9c-30.8-17.6-61.4-35.4-92-53.2
		C50.4,121.9,50.6,121.6,48,113.5z"/>
</g>
</svg>
